<mxfile host="app.diagrams.net" modified="2024-03-31T20:33:32.573Z" agent="Mozilla/5.0 (Windows NT 10.0; Win64; x64) AppleWebKit/537.36 (KHTML, like Gecko) Chrome/123.0.0.0 Safari/537.36 Edg/123.0.0.0" etag="XEqAPuR1lAAoe9iyzbHi" version="24.2.1" type="device">
  <diagram name="Страница — 1" id="b5Fu51LjnXdeVfcx_5U3">
    <mxGraphModel dx="1042" dy="535" grid="1" gridSize="10" guides="1" tooltips="1" connect="1" arrows="1" fold="1" page="1" pageScale="1" pageWidth="827" pageHeight="1169" math="0" shadow="0">
      <root>
        <mxCell id="0" />
        <mxCell id="1" parent="0" />
        <mxCell id="GmpKweX77fATSRwiP_Va-14" style="edgeStyle=orthogonalEdgeStyle;rounded=0;orthogonalLoop=1;jettySize=auto;html=1;entryX=0.5;entryY=0;entryDx=0;entryDy=0;" parent="1" source="GmpKweX77fATSRwiP_Va-1" target="GmpKweX77fATSRwiP_Va-5" edge="1">
          <mxGeometry relative="1" as="geometry" />
        </mxCell>
        <mxCell id="GmpKweX77fATSRwiP_Va-1" value="Вход&lt;div&gt;create_divided_differences&lt;/div&gt;&lt;div&gt;(x_vals, y_vals, k)&lt;/div&gt;" style="ellipse;whiteSpace=wrap;html=1;" parent="1" vertex="1">
          <mxGeometry x="360" y="100" width="120" height="60" as="geometry" />
        </mxCell>
        <mxCell id="GmpKweX77fATSRwiP_Va-12" style="edgeStyle=orthogonalEdgeStyle;rounded=0;orthogonalLoop=1;jettySize=auto;html=1;entryX=0.5;entryY=0;entryDx=0;entryDy=0;" parent="1" target="GmpKweX77fATSRwiP_Va-6" edge="1">
          <mxGeometry relative="1" as="geometry">
            <mxPoint x="420" y="300" as="sourcePoint" />
          </mxGeometry>
        </mxCell>
        <mxCell id="GmpKweX77fATSRwiP_Va-13" style="edgeStyle=orthogonalEdgeStyle;rounded=0;orthogonalLoop=1;jettySize=auto;html=1;entryX=0.5;entryY=0;entryDx=0;entryDy=0;" parent="1" source="GmpKweX77fATSRwiP_Va-5" edge="1">
          <mxGeometry relative="1" as="geometry">
            <mxPoint x="420" y="260" as="targetPoint" />
          </mxGeometry>
        </mxCell>
        <mxCell id="GmpKweX77fATSRwiP_Va-5" value="sum = 0" style="rounded=0;whiteSpace=wrap;html=1;" parent="1" vertex="1">
          <mxGeometry x="360" y="190" width="120" height="40" as="geometry" />
        </mxCell>
        <mxCell id="GmpKweX77fATSRwiP_Va-11" style="edgeStyle=orthogonalEdgeStyle;rounded=0;orthogonalLoop=1;jettySize=auto;html=1;entryX=0.5;entryY=0;entryDx=0;entryDy=0;" parent="1" source="GmpKweX77fATSRwiP_Va-6" edge="1">
          <mxGeometry relative="1" as="geometry">
            <mxPoint x="420" y="410" as="targetPoint" />
          </mxGeometry>
        </mxCell>
        <mxCell id="GmpKweX77fATSRwiP_Va-6" value="mul = 1" style="rounded=0;whiteSpace=wrap;html=1;" parent="1" vertex="1">
          <mxGeometry x="360" y="340" width="120" height="40" as="geometry" />
        </mxCell>
        <mxCell id="GmpKweX77fATSRwiP_Va-23" style="edgeStyle=orthogonalEdgeStyle;rounded=0;orthogonalLoop=1;jettySize=auto;html=1;entryX=0.5;entryY=1;entryDx=0;entryDy=0;" parent="1" source="GmpKweX77fATSRwiP_Va-7" target="GmpKweX77fATSRwiP_Va-22" edge="1">
          <mxGeometry relative="1" as="geometry" />
        </mxCell>
        <mxCell id="GmpKweX77fATSRwiP_Va-7" value="mul = mul * (x[j] - x[i])" style="rounded=0;whiteSpace=wrap;html=1;" parent="1" vertex="1">
          <mxGeometry x="360" y="550" width="120" height="40" as="geometry" />
        </mxCell>
        <mxCell id="GmpKweX77fATSRwiP_Va-27" style="edgeStyle=orthogonalEdgeStyle;rounded=0;orthogonalLoop=1;jettySize=auto;html=1;" parent="1" source="GmpKweX77fATSRwiP_Va-15" target="GmpKweX77fATSRwiP_Va-26" edge="1">
          <mxGeometry relative="1" as="geometry" />
        </mxCell>
        <mxCell id="GmpKweX77fATSRwiP_Va-15" value="sum = sum + f(x[j]) / mul" style="rounded=0;whiteSpace=wrap;html=1;" parent="1" vertex="1">
          <mxGeometry x="360" y="690" width="120" height="40" as="geometry" />
        </mxCell>
        <mxCell id="GmpKweX77fATSRwiP_Va-18" value="Выход&lt;div&gt;f(x0, ... , xn)&lt;/div&gt;" style="ellipse;whiteSpace=wrap;html=1;" parent="1" vertex="1">
          <mxGeometry x="360" y="830" width="120" height="40" as="geometry" />
        </mxCell>
        <mxCell id="Ecfa0SH4_Y8q_K_p52DG-2" style="edgeStyle=orthogonalEdgeStyle;rounded=0;orthogonalLoop=1;jettySize=auto;html=1;entryX=0.5;entryY=0;entryDx=0;entryDy=0;" edge="1" parent="1" source="GmpKweX77fATSRwiP_Va-20" target="Ecfa0SH4_Y8q_K_p52DG-1">
          <mxGeometry relative="1" as="geometry" />
        </mxCell>
        <mxCell id="GmpKweX77fATSRwiP_Va-20" value="i = 0(1)n" style="shape=loopLimit;whiteSpace=wrap;html=1;direction=east;" parent="1" vertex="1">
          <mxGeometry x="360" y="410" width="120" height="40" as="geometry" />
        </mxCell>
        <mxCell id="GmpKweX77fATSRwiP_Va-25" style="edgeStyle=orthogonalEdgeStyle;rounded=0;orthogonalLoop=1;jettySize=auto;html=1;entryX=0.5;entryY=0;entryDx=0;entryDy=0;" parent="1" source="GmpKweX77fATSRwiP_Va-22" target="GmpKweX77fATSRwiP_Va-15" edge="1">
          <mxGeometry relative="1" as="geometry" />
        </mxCell>
        <mxCell id="GmpKweX77fATSRwiP_Va-22" value="i = i + 1" style="shape=loopLimit;whiteSpace=wrap;html=1;direction=west;" parent="1" vertex="1">
          <mxGeometry x="360" y="620" width="120" height="40" as="geometry" />
        </mxCell>
        <mxCell id="GmpKweX77fATSRwiP_Va-24" value="j = 0(1)n" style="shape=loopLimit;whiteSpace=wrap;html=1;direction=east;" parent="1" vertex="1">
          <mxGeometry x="360" y="260" width="120" height="40" as="geometry" />
        </mxCell>
        <mxCell id="GmpKweX77fATSRwiP_Va-28" style="edgeStyle=orthogonalEdgeStyle;rounded=0;orthogonalLoop=1;jettySize=auto;html=1;entryX=0.5;entryY=0;entryDx=0;entryDy=0;" parent="1" source="GmpKweX77fATSRwiP_Va-26" target="GmpKweX77fATSRwiP_Va-18" edge="1">
          <mxGeometry relative="1" as="geometry" />
        </mxCell>
        <mxCell id="GmpKweX77fATSRwiP_Va-26" value="j = j + 1" style="shape=loopLimit;whiteSpace=wrap;html=1;direction=west;" parent="1" vertex="1">
          <mxGeometry x="360" y="760" width="120" height="40" as="geometry" />
        </mxCell>
        <mxCell id="Ecfa0SH4_Y8q_K_p52DG-3" style="edgeStyle=orthogonalEdgeStyle;rounded=0;orthogonalLoop=1;jettySize=auto;html=1;entryX=0.5;entryY=0;entryDx=0;entryDy=0;" edge="1" parent="1" source="Ecfa0SH4_Y8q_K_p52DG-1" target="GmpKweX77fATSRwiP_Va-7">
          <mxGeometry relative="1" as="geometry" />
        </mxCell>
        <mxCell id="Ecfa0SH4_Y8q_K_p52DG-4" style="edgeStyle=orthogonalEdgeStyle;rounded=0;orthogonalLoop=1;jettySize=auto;html=1;exitX=1;exitY=0.5;exitDx=0;exitDy=0;" edge="1" parent="1" source="Ecfa0SH4_Y8q_K_p52DG-1">
          <mxGeometry relative="1" as="geometry">
            <mxPoint x="420" y="600" as="targetPoint" />
            <Array as="points">
              <mxPoint x="500" y="500" />
              <mxPoint x="500" y="600" />
              <mxPoint x="431" y="600" />
            </Array>
          </mxGeometry>
        </mxCell>
        <mxCell id="Ecfa0SH4_Y8q_K_p52DG-1" value="i != j" style="rhombus;whiteSpace=wrap;html=1;" vertex="1" parent="1">
          <mxGeometry x="360" y="480" width="120" height="40" as="geometry" />
        </mxCell>
        <mxCell id="Ecfa0SH4_Y8q_K_p52DG-5" value="Да" style="text;html=1;align=center;verticalAlign=middle;resizable=0;points=[];autosize=1;strokeColor=none;fillColor=none;" vertex="1" parent="1">
          <mxGeometry x="410" y="518" width="40" height="30" as="geometry" />
        </mxCell>
        <mxCell id="Ecfa0SH4_Y8q_K_p52DG-6" value="Нет" style="text;html=1;align=center;verticalAlign=middle;resizable=0;points=[];autosize=1;strokeColor=none;fillColor=none;" vertex="1" parent="1">
          <mxGeometry x="470" y="468" width="40" height="30" as="geometry" />
        </mxCell>
      </root>
    </mxGraphModel>
  </diagram>
</mxfile>
